<svg width="22" height="21" viewBox="0 0 22 21" fill="none" xmlns="http://www.w3.org/2000/svg">
<path fill-rule="evenodd" clip-rule="evenodd" d="M1.29961 10.2451C1.29961 5.34526 5.27177 1.3731 10.1716 1.3731C11.4839 1.3731 12.7281 1.65763 13.8472 2.16779C14.1487 2.30524 14.5046 2.17223 14.642 1.87071C14.7795 1.56919 14.6465 1.21334 14.345 1.07589C13.0727 0.495917 11.659 0.173096 10.1716 0.173096C4.60903 0.173096 0.0996094 4.68252 0.0996094 10.2451C0.0996094 15.8076 4.60903 20.317 10.1716 20.317C15.7341 20.317 20.2436 15.8076 20.2436 10.2451C20.2436 9.79681 20.2142 9.35509 20.1573 8.92178C20.1142 8.59323 19.8129 8.36187 19.4843 8.40501C19.1558 8.44815 18.9244 8.74947 18.9676 9.07802C19.0177 9.45966 19.0436 9.84919 19.0436 10.2451C19.0436 15.1449 15.0714 19.117 10.1716 19.117C5.27177 19.117 1.29961 15.1449 1.29961 10.2451ZM13.6939 7.76565C13.6939 7.22617 13.2566 6.78882 12.7171 6.78882C12.1776 6.78882 11.7402 7.22617 11.7402 7.76565C11.7402 8.30514 12.1776 8.74248 12.7171 8.74248C13.2566 8.74248 13.6939 8.30514 13.6939 7.76565ZM7.62722 6.78882C8.16671 6.78882 8.60406 7.22617 8.60406 7.76565C8.60406 8.30514 8.16671 8.74248 7.62722 8.74248C7.08774 8.74248 6.65039 8.30514 6.65039 7.76565C6.65039 7.22617 7.08774 6.78882 7.62722 6.78882ZM7.39812 11.3222C7.34412 10.9952 7.0353 10.774 6.70836 10.828C6.38142 10.882 6.16016 11.1908 6.21417 11.5178C6.38511 12.5525 6.84031 13.3481 7.53682 13.8943C8.22237 14.432 9.08782 14.6861 10.0144 14.7505L10.0352 14.752H10.0561C11.0512 14.752 11.941 14.5029 12.6292 13.9385C13.3213 13.371 13.7416 12.5404 13.8991 11.5107C13.9492 11.1831 13.7242 10.877 13.3967 10.8269C13.0691 10.7768 12.7629 11.0017 12.7128 11.3293C12.5895 12.1358 12.2822 12.6712 11.8683 13.0106C11.4542 13.3502 10.8661 13.5485 10.0768 13.5519C9.31611 13.4961 8.71352 13.2921 8.27734 12.9501C7.84813 12.6135 7.52696 12.1021 7.39812 11.3222ZM17.5957 1.1C17.5957 0.768629 17.8643 0.5 18.1957 0.5C18.5271 0.5 18.7957 0.768629 18.7957 1.1V3.3H20.9957C21.3271 3.3 21.5957 3.56863 21.5957 3.9C21.5957 4.23137 21.3271 4.5 20.9957 4.5H18.7957V6.9C18.7957 7.23137 18.5271 7.5 18.1957 7.5C17.8643 7.5 17.5957 7.23137 17.5957 6.9V4.5H15.1957C14.8643 4.5 14.5957 4.23137 14.5957 3.9C14.5957 3.56863 14.8643 3.3 15.1957 3.3H17.5957V1.1Z" fill="#181818"/>
</svg>
