<svg width="321" height="172" viewBox="0 0 321 172" fill="none" xmlns="http://www.w3.org/2000/svg">
<g filter="url(#filter0_d_1_981)">
<rect x="14.2998" y="12" width="292.143" height="143.877" rx="9.14164" fill="white" shape-rendering="crispEdges"/>
<rect x="14.7998" y="12.5" width="291.143" height="142.877" rx="8.64164" stroke="black" stroke-opacity="0.3" shape-rendering="crispEdges"/>
<rect x="41.7246" y="39.4248" width="72.5644" height="38.8" rx="19.4" fill="black" fill-opacity="0.54"/>
<g clip-path="url(#clip0_1_981)">
<path d="M57.7227 69.5347H76.0059V51.2514H57.7227V69.5347Z" fill="black"/>
</g>
<path d="M81.5259 63.8252V62.3381L85.5759 58.4305C86.7308 57.2756 87.3319 56.5953 87.3319 55.6303C87.3319 54.5624 86.4855 53.89 85.3702 53.89C84.1916 53.89 83.4322 54.6257 83.4401 55.7885H81.4784C81.4705 53.6211 83.1 52.2131 85.386 52.2131C87.7274 52.2131 89.3016 53.6132 89.3095 55.5354C89.3016 56.8247 88.6846 57.8688 86.4302 59.9967L84.3894 62.0217V62.1008H89.4835V63.8252H81.5259ZM90.6662 61.6895V60.0441L95.618 52.3713H98.1809V59.9967H99.6838V61.6895H98.1809V63.8252H96.2192V61.6895H90.6662ZM92.7703 59.9967H96.2508V54.7127H96.1242L92.7703 59.9176V59.9967Z" fill="white"/>
<rect x="125.089" y="39.4248" width="70.5644" height="38.8" rx="19.4" fill="black" fill-opacity="0.54"/>
<g clip-path="url(#clip1_1_981)">
<path d="M141.086 69.5347H159.37V51.2514H141.086V69.5347Z" fill="black"/>
</g>
<path d="M169.541 52.3713V63.8252H167.469V54.3805H167.406L164.732 56.0891V54.2064L167.564 52.3713H169.541ZM172.164 63.8252V62.3381L176.214 58.4305C177.369 57.2756 177.97 56.5953 177.97 55.6303C177.97 54.5624 177.123 53.89 176.008 53.89C174.829 53.89 174.07 54.6257 174.078 55.7885H172.116C172.108 53.6211 173.738 52.2131 176.024 52.2131C178.365 52.2131 179.939 53.6132 179.947 55.5354C179.939 56.8247 179.322 57.8688 177.068 59.9967L175.027 62.0217V62.1008H180.121V63.8252H172.164Z" fill="white"/>
<rect x="206.454" y="39.4248" width="72.5644" height="38.8" rx="19.4" fill="black" fill-opacity="0.54"/>
<g clip-path="url(#clip2_1_981)">
<path d="M222.452 69.5347H240.735V51.2514H222.452V69.5347Z" fill="black"/>
</g>
<path d="M246.255 63.8252V62.3381L250.305 58.4305C251.46 57.2756 252.061 56.5953 252.061 55.6303C252.061 54.5624 251.215 53.89 250.099 53.89C248.921 53.89 248.161 54.6257 248.169 55.7885H246.207C246.2 53.6211 247.829 52.2131 250.115 52.2131C252.456 52.2131 254.031 53.6132 254.038 55.5354C254.031 56.8247 253.414 57.8688 251.159 59.9967L249.118 62.0217V62.1008H254.212V63.8252H246.255ZM255.395 61.6895V60.0441L260.347 52.3713H262.91V59.9967H264.413V61.6895H262.91V63.8252H260.948V61.6895H255.395ZM257.499 59.9967H260.98V54.7127H260.853L257.499 59.9176V59.9967Z" fill="white"/>
<rect x="41.7246" y="89.6519" width="70.5644" height="38.8" rx="19.4" fill="black" fill-opacity="0.5"/>
<g clip-path="url(#clip3_1_981)">
<path d="M57.7227 119.761H76.0059V101.478H57.7227V119.761Z" fill="black"/>
</g>
<path d="M86.1771 102.598V114.052H84.1046V104.607H84.0413L81.3677 106.316V104.433L84.1995 102.598H86.1771ZM93.0234 114.21C90.2628 114.21 88.6175 112.074 88.6254 108.325C88.6175 104.591 90.2786 102.44 93.0234 102.44C95.7683 102.44 97.4215 104.591 97.4215 108.325C97.4215 112.082 95.7762 114.21 93.0234 114.21ZM90.6979 108.325C90.6979 111.078 91.5838 112.478 93.0234 112.486C94.4552 112.478 95.349 111.078 95.349 108.325C95.3411 105.596 94.4552 104.156 93.0234 104.148C91.5917 104.156 90.7058 105.596 90.6979 108.325Z" fill="white"/>
<rect x="123.089" y="89.6519" width="63.5644" height="38.8" rx="19.4" fill="black" fill-opacity="0.5"/>
<g clip-path="url(#clip4_1_981)">
<path d="M139.086 119.761H157.37V101.478H139.086V119.761Z" fill="black"/>
</g>
<path d="M167.051 114.21C164.496 114.21 162.692 112.849 162.7 110.983C162.692 109.527 163.776 108.341 165.152 108.119V108.056C163.95 107.803 163.135 106.759 163.127 105.509C163.135 103.737 164.789 102.44 167.051 102.44C169.297 102.44 170.958 103.737 170.958 105.509C170.958 106.767 170.12 107.803 168.933 108.056V108.119C170.302 108.341 171.394 109.527 171.401 110.983C171.394 112.849 169.582 114.21 167.051 114.21ZM164.82 110.793C164.812 111.853 165.69 112.58 167.051 112.58C168.396 112.58 169.274 111.853 169.282 110.793C169.274 109.717 168.34 108.918 167.051 108.926C165.762 108.918 164.812 109.709 164.82 110.793ZM165.137 105.699C165.145 106.703 165.936 107.391 167.051 107.391C168.15 107.391 168.949 106.703 168.949 105.699C168.949 104.726 168.174 104.053 167.051 104.053C165.904 104.053 165.145 104.726 165.137 105.699Z" fill="white"/>
<rect x="197.454" y="89.6519" width="70.5644" height="38.8" rx="19.4" fill="black" fill-opacity="0.5"/>
<g clip-path="url(#clip5_1_981)">
<path d="M213.452 119.761H231.735V101.478H213.452V119.761Z" fill="black"/>
</g>
<path d="M241.906 102.598V114.052H239.834V104.607H239.77L237.097 106.316V104.433L239.929 102.598H241.906ZM248.752 114.21C245.992 114.21 244.346 112.074 244.354 108.325C244.346 104.591 246.008 102.44 248.752 102.44C251.497 102.44 253.15 104.591 253.15 108.325C253.15 112.082 251.505 114.21 248.752 114.21ZM246.427 108.325C246.427 111.078 247.313 112.478 248.752 112.486C250.184 112.478 251.078 111.078 251.078 108.325C251.07 105.596 250.184 104.156 248.752 104.148C247.321 104.156 246.435 105.596 246.427 108.325Z" fill="white"/>
</g>
<defs>
<filter id="filter0_d_1_981" x="0.58735" y="0.572954" width="319.568" height="171.302" filterUnits="userSpaceOnUse" color-interpolation-filters="sRGB">
<feFlood flood-opacity="0" result="BackgroundImageFix"/>
<feColorMatrix in="SourceAlpha" type="matrix" values="0 0 0 0 0 0 0 0 0 0 0 0 0 0 0 0 0 0 127 0" result="hardAlpha"/>
<feOffset dy="2.28541"/>
<feGaussianBlur stdDeviation="6.85623"/>
<feComposite in2="hardAlpha" operator="out"/>
<feColorMatrix type="matrix" values="0 0 0 0 0 0 0 0 0 0 0 0 0 0 0 0 0 0 0.08 0"/>
<feBlend mode="normal" in2="BackgroundImageFix" result="effect1_dropShadow_1_981"/>
<feBlend mode="normal" in="SourceGraphic" in2="effect1_dropShadow_1_981" result="shape"/>
</filter>
<clipPath id="clip0_1_981">
<rect width="22.8541" height="22.8541" fill="white" transform="translate(55.437 47.3979)"/>
</clipPath>
<clipPath id="clip1_1_981">
<rect width="22.8541" height="22.8541" fill="white" transform="translate(138.801 47.3979)"/>
</clipPath>
<clipPath id="clip2_1_981">
<rect width="22.8541" height="22.8541" fill="white" transform="translate(220.166 47.3979)"/>
</clipPath>
<clipPath id="clip3_1_981">
<rect width="22.8541" height="22.8541" fill="white" transform="translate(55.437 97.6245)"/>
</clipPath>
<clipPath id="clip4_1_981">
<rect width="22.8541" height="22.8541" fill="white" transform="translate(136.801 97.6245)"/>
</clipPath>
<clipPath id="clip5_1_981">
<rect width="22.8541" height="22.8541" fill="white" transform="translate(211.166 97.6245)"/>
</clipPath>
</defs>
</svg>
