<svg width="20" height="22" viewBox="0 0 20 22" fill="none" xmlns="http://www.w3.org/2000/svg">
<path fill-rule="evenodd" clip-rule="evenodd" d="M9.57632 0.45076C9.81064 0.216446 10.1905 0.216446 10.4249 0.45076L14.9249 4.95076C15.1592 5.18507 15.1592 5.56497 14.9249 5.79929C14.6905 6.0336 14.3106 6.0336 14.0763 5.79929L10.6004 2.32336V12.125C10.6004 12.4564 10.3318 12.725 10.0004 12.725C9.66902 12.725 9.40039 12.4564 9.40039 12.125V2.32375L5.92485 5.79929C5.69054 6.0336 5.31064 6.0336 5.07632 5.79929C4.84201 5.56497 4.84201 5.18507 5.07632 4.95076L9.57632 0.45076ZM2.12539 10.35C1.83544 10.35 1.60039 10.5851 1.60039 10.875V20C1.60039 20.29 1.83544 20.525 2.12539 20.525H17.8754C18.1653 20.525 18.4004 20.29 18.4004 20V10.875C18.4004 10.5851 18.1653 10.35 17.8754 10.35H15.6254C15.294 10.35 15.0254 10.0814 15.0254 9.75002C15.0254 9.41865 15.294 9.15002 15.6254 9.15002H17.8754C18.8281 9.15002 19.6004 9.92233 19.6004 10.875V20C19.6004 20.9527 18.8281 21.725 17.8754 21.725H2.12539C1.1727 21.725 0.400391 20.9527 0.400391 20V10.875C0.400391 9.92233 1.1727 9.15002 2.12539 9.15002H4.37539C4.70676 9.15002 4.97539 9.41865 4.97539 9.75002C4.97539 10.0814 4.70676 10.35 4.37539 10.35H2.12539Z" fill="#101010"/>
</svg>
